<svg width="133" height="38" viewBox="0 0 133 38" fill="none" xmlns="http://www.w3.org/2000/svg">
<path fill-rule="evenodd" clip-rule="evenodd" d="M30.1503 31.6133L25.0508 20.8133L35.5323 19.2244C35.471 24.1083 33.4108 28.5005 30.1503 31.6133ZM17.709 36.3133L23.8489 22.1617L28.8432 32.74C25.9795 34.9706 22.4133 36.3133 18.5365 36.3133H17.709ZM26.1902 3.55993L14.7238 8.06683L3.91016 1.68683H18.5368C21.2912 1.68683 23.8857 2.37164 26.1902 3.55993ZM31.548 7.8727C33.7457 10.531 35.1664 13.8681 35.4704 17.5275L25.3691 19.059L31.548 7.8727ZM14.3828 27.0886L21.9766 22.2992L16.5929 34.7117L14.3828 27.0886ZM12.9684 28.1647L15.3309 36.3132H3.15625L12.9684 28.1647ZM1.65625 18.5428L12.0814 26.7318L1.65625 35.3813V18.5428ZM23.681 18.6694L16.0293 9.36125L28.0317 4.6435C28.865 5.21614 29.6387 5.87059 30.3586 6.57985L23.681 18.6694ZM21.7963 19.0035L3.38477 16.3444L14.456 10.0749L21.7963 19.0035ZM13.4607 25.6852L3.81836 18.1101L21.4363 20.6554L13.4607 25.6852ZM12.9736 8.98424L1.65625 15.3929V2.30653L12.9736 8.98424ZM18.5366 0H0V38H18.5366C28.8276 38 37.2 29.477 37.2 19C37.2 8.52297 28.8276 0 18.5366 0Z" fill="#1D4153"/>
<path fill-rule="evenodd" clip-rule="evenodd" d="M99.0979 15.8577C95.5677 15.8577 92.6946 18.5991 92.6946 21.9691C92.6946 25.3383 95.5677 28.0796 99.0979 28.0796C102.628 28.0796 105.501 25.3383 105.501 21.9691C105.501 18.5991 102.628 15.8577 99.0979 15.8577ZM99.097 29.6875C94.6377 29.6875 91.009 26.2251 91.009 21.9692C91.009 17.7132 94.6377 14.25 99.097 14.25C103.556 14.25 107.185 17.7132 107.185 21.9692C107.185 26.2251 103.556 29.6875 99.097 29.6875ZM56.2007 27.8929H52.0859V16.1044H56.2007C59.6062 16.1044 62.3766 18.7485 62.3766 21.9987C62.3766 25.2489 59.6062 27.8929 56.2007 27.8929ZM50.4004 29.5008H56.1998C60.5335 29.5008 64.0603 26.1348 64.0603 21.9987C64.0603 17.8617 60.5335 14.4966 56.1998 14.4966H50.4004V29.5008ZM80.1694 27.8929H76.0547V16.1044H80.1694C83.5749 16.1044 86.3453 18.7485 86.3453 21.9987C86.3453 25.2489 83.5749 27.8929 80.1694 27.8929ZM74.3691 29.5008H80.1685C84.5022 29.5008 88.029 26.1348 88.029 21.9987C88.029 17.8617 84.5022 14.4966 80.1685 14.4966H74.3691V29.5008ZM69.6749 29.3548H67.9902V14.6014H69.6749V29.3548ZM130.316 29.3548H132.001V14.6014H130.316V29.3548ZM123.999 29.3545H125.683V14.6679H124.144L118.153 22.5583L112.32 14.6679H110.791V29.3545H112.476V17.7195L118.152 25.3293L123.999 17.2122V29.3545Z" fill="#1D4153"/>
</svg>
